# xmcd
#
# Track frame offsets:
#	150
#	12129
#	20752
#	30652
#	40796
#	50823
#	57909
#	66692
#	77233
#	88324
#	99724
#	111827
#	122403
#	137247
#	149477
#	161847
#	173210
#	184641
#	194653
#	208237
#	222216
#	235922
#	249631
#	261135
#	271496
#	283220
#	295703
#	306549
#	318562
#	331857
#
# Disc length: 4584 seconds
#
# Revision: 0
# Processed by: cddbd v1.5.1PL2 Copyright (c) Steve Scherf et al.
# Submitted via: audiograbber 1.82.02
#
DISCID=e211e61e
DTITLE=Various Artist - Dazzling Group Sounds, Vol 9
DYEAR=1900
DGENRE=R&B
TTITLE0=Castelles (George Grant and The) - Hey Baby Baby
TTITLE1=Earls (Mike Hill and The) - Good Lovin' Mama
TTITLE2=Majestics - Pennies For A Beggar
TTITLE3=Ivorys - Wishing Well
TTITLE4=Velps - Korea
TTITLE5=Volquins - My Dear
TTITLE6=Laurels (Peppermint Harris and The) - Just Me And You
TTITLE7=Cocoas - Flip Your Daddy
TTITLE8=Stylists - Mourning
TTITLE9=Good Fellows - Another Chance
TTITLE10=Moroccos (Lillian Brooks and The) - Parkin'
TTITLE11=William Hines and Group - Bring Back Your Heart
TTITLE12=Laurels (Mark Hill and The) - I'm All Alone
TTITLE13=Dora Tapp and Group - Sad And Broken Heart
TTITLE14=Laurels (Peppermint Harris and Group) - Need Your Lovin'
TTITLE15=Five Blue Flames (Chris Powell and The) - My Love Is Gone
TTITLE16=Starlings - I Gotta Go Now
TTITLE17=Bunny Paul and Group - Answer The Call
TTITLE18=Twilighters - I Wonder Who's Calling Her Now
TTITLE19=Vandels - A Small Silver Ring
TTITLE20=Marvells - For Sentimental Reasons
TTITLE21=Quantrills (Freddie and The) - If I Give My Heart To You
TTITLE22=Valquins - Falling Star
TTITLE23=Premiers (Little Sammy Yates and The) - Red Sails In The Sunset
TTITLE24=Honeybees - Give Your Love To Me
TTITLE25=Shadows - There Stands The Glass
TTITLE26=Arabians - To Look At A Star
TTITLE27=Contours - The Mission
TTITLE28=Crusiers - The Moon Is Yours Tonight
TTITLE29=Sof-Tones - Oh Why
EXTD=Different from playlist on back, which missed one song. 30 on CD, 29 on pl
EXTD=aylist
EXTT0=
EXTT1=
EXTT2=
EXTT3=
EXTT4=
EXTT5=
EXTT6=
EXTT7=
EXTT8=
EXTT9=
EXTT10=
EXTT11=
EXTT12=
EXTT13=
EXTT14=
EXTT15=
EXTT16=
EXTT17=
EXTT18=
EXTT19=
EXTT20=
EXTT21=
EXTT22=
EXTT23=
EXTT24=
EXTT25=
EXTT26=
EXTT27=
EXTT28=
EXTT29=
PLAYORDER=
